<svg width="1236" height="548" viewBox="0 0 1236 548" fill="none" xmlns="http://www.w3.org/2000/svg">
<g clip-path="url(#clip0)">
<path d="M79.75 525.29L0 547.24V111.77L79.75 89.8201V525.29Z" fill="#F2F2F2"/>
<path d="M199.39 171.67V148.09L406.19 91.18V0L107.58 82.17V288.11L406.19 205.95V114.76L199.39 171.67Z" fill="#F2F2F2"/>
<path d="M314.38 369.55V345.97L107.58 402.88V311.69L406.19 229.53V435.47L107.58 517.64V426.46L314.38 369.55Z" fill="#F2F2F2"/>
<path d="M563.11 85.8499C563.11 108.75 544.47 120.12 527.95 122.07C521.935 122.694 515.886 122.931 509.84 122.78H461V0.259945H511.26C516.481 0.143999 521.703 0.391262 526.89 0.999945C547.13 3.47994 558.49 16.2699 558.49 32.2499C558.49 43.4399 552.63 51.9599 540.56 56.2499C556 60.6299 563.11 70.9299 563.11 85.8499ZM493 48.5599H507.38C509.997 48.578 512.611 48.3975 515.2 48.0199C521.06 47.1399 525.14 44.1199 525.14 36.8399C525.14 29.9099 521.41 26.5399 515.37 25.6499C512.72 25.2759 510.046 25.0987 507.37 25.1199H493V48.5599ZM529.76 84.7799C529.76 76.6099 523.9 72.3499 517.33 71.7799C515.02 71.5999 512.18 71.5999 509.33 71.5999H493V97.9199H510.22C513.06 97.9199 515.91 97.9199 518.22 97.7399C523.87 97.3899 529.73 92.7699 529.73 84.7799H529.76Z" fill="#F2F2F2"/>
<path d="M675.87 122.78H581.93V0.26001H613.93V95.79H675.93L675.87 122.78Z" fill="#F2F2F2"/>
<path d="M693.45 122.78V0.26001H725.45V122.78H693.45Z" fill="#F2F2F2"/>
<path d="M824.67 122.78L780.1 41.78C781.17 54.21 781.17 65.04 781.17 72.14V122.75H749.17V0.26001H789L835.53 84.78C834.64 72.35 834.46 59.78 834.46 52.64V0.26001H866.46V122.78H824.67Z" fill="#F2F2F2"/>
<path d="M1005.44 122.78H965.44L930.86 75.55L922.16 85.14V122.78H890.16V0.26001H922.16V54.42L968.86 0.26001H1007L954.12 58L1005.44 122.78Z" fill="#F2F2F2"/>
<path d="M566.48 196.64L566.66 198.41H555.66L555.31 196.64C551.58 177.99 539.31 164.85 517.48 164.85C492.27 164.85 473.27 186.34 473.27 219.72C473.27 253.82 491.38 274.59 516.27 274.59C539 274.59 551.07 260.92 554.8 242.1L555.16 240.32H566.16L566 242.1C562.8 264.65 546.82 283.47 515.57 283.47C482 283.47 461 257.54 461 220.25C461 182.61 484.44 155.97 518 155.97C547.48 156 563.29 173.37 566.48 196.64Z" fill="#F2F2F2"/>
<path d="M677.47 281H665.21C662.21 273.19 660.06 265.55 658.29 249.57C656.69 236.57 651.36 226.49 638.22 225.78C635.03 225.6 631.47 225.6 628.63 225.6H603.63V281H592.63V158.46H628.63C634.203 158.33 639.778 158.567 645.32 159.17C663.44 161.48 675.51 171.42 675.51 190.95C675.51 207.11 665.21 216.88 652.43 220.08C662.9 224.34 668.05 235.53 669.3 248.31C671.07 265.18 673.2 274.06 677.47 281ZM628.81 216.37C634.14 216.37 637.16 216.37 641.24 216.01C654.74 214.95 663.61 206.24 663.61 191.86C663.61 177.48 655.98 170.38 642.61 168.42C637.964 167.878 633.287 167.641 628.61 167.71H603.61V216.37H628.81Z" fill="#F2F2F2"/>
<path d="M778.68 281H699.31V158.46H776.91V167.46H710.32V215.1H772.32V224.34H710.32V271.93H778.68V281Z" fill="#F2F2F2"/>
<path d="M817.21 236.06L801.41 281H789.69L835 158.46H849.74L893.93 281H882L866 236.08L817.21 236.06ZM862.85 226.82L842.07 167.34L820.41 226.82H862.85Z" fill="#F2F2F2"/>
<path d="M943.82 167.51V281H932.82V167.51H887.89V158.51H988.75V167.51H943.82Z" fill="#F2F2F2"/>
<path d="M1006.15 281V158.46H1017.15V281H1006.15Z" fill="#F2F2F2"/>
<path d="M1080 281L1035.8 158.46H1047.7L1087.7 272.46L1128.36 158.46H1140.26L1094.76 281H1080Z" fill="#F2F2F2"/>
<path d="M1235.22 281H1155.84V158.46H1233.44V167.46H1166.85V215.1H1228.85V224.34H1166.85V271.93H1235.22V281Z" fill="#F2F2F2"/>
<path d="M546.06 352.74H534.52C532.39 336.05 521.73 326.28 505.58 326.28C491.58 326.28 478.58 333.56 478.58 348.12C478.58 363.04 487.28 368.54 508.23 373.87C534.51 380.62 547.65 390.56 547.65 410.81C547.65 431.06 529.89 444.9 506.45 444.9C481.59 444.9 463.66 432.29 460.99 408.67H472.71C475.71 426.26 489.23 436.02 506.81 436.02C522.97 436.02 535.93 426.79 535.93 412.58C535.93 396.78 526.7 390.03 503.79 384.35C480.53 378.35 466.68 370.14 466.68 350.43C466.68 330.54 484.79 317.43 506.45 317.43C531 317.4 543.76 332.85 546.06 352.74Z" fill="#F2F2F2"/>
<path d="M616.73 329V442.41H605.73V329H560.8V319.94H661.66V329H616.73Z" fill="#F2F2F2"/>
<path d="M765 398.55C765 402.11 764.82 405.66 764.46 409.92C763.04 429.81 749.37 444.92 721.46 444.92C693.4 444.92 679.91 429.83 678.31 409.92C677.96 405.66 677.96 402.11 677.96 398.55V319.89H688.96V398C688.891 401.614 689.011 405.229 689.32 408.83C690.78 424.3 700.9 436 721.5 436C741.92 436 752.04 424.28 753.5 408.83C753.86 405.232 754.027 401.616 754 398V319.89H765V398.55Z" fill="#F2F2F2"/>
<path d="M894.28 380.09C894.28 418.8 870.13 438.69 846.15 441.7C840.966 442.291 835.747 442.528 830.53 442.41H794.66V319.89H831.06C835.98 319.785 840.901 319.962 845.8 320.42C870.66 323.26 894.28 341 894.28 380.09ZM882.2 380.09C882.2 348.66 864.98 332.5 844.73 329.65C840.014 329.157 835.27 328.98 830.53 329.12H805.67V433.18H830C835.041 433.328 840.086 433.091 845.09 432.47C865.33 429.45 882.2 411.87 882.2 380.09V380.09Z" fill="#F2F2F2"/>
<path d="M918.6 442.41V319.89H929.6V442.41H918.6Z" fill="#F2F2F2"/>
<path d="M1065.46 381.15C1065.46 418.09 1044.33 444.9 1008.46 444.9C972.76 444.9 951.63 418.09 951.63 381.15C951.63 343.86 972.76 317.4 1008.46 317.4C1044.33 317.4 1065.46 343.86 1065.46 381.15ZM1053.21 381.15C1053.21 346.7 1034.91 326.28 1008.46 326.28C982.18 326.28 963.89 346.7 963.89 381.15C963.89 415.42 982.18 436.02 1008.46 436.02C1034.91 436 1053.21 415.42 1053.21 381.15Z" fill="#F2F2F2"/>
</g>
<defs>
<clipPath id="clip0">
<rect width="1235.22" height="547.24" fill="white"/>
</clipPath>
</defs>
</svg>
