<?xml version="1.0" encoding="UTF-8"?>
<svg id="Layer_2" data-name="Layer 2" xmlns="http://www.w3.org/2000/svg" xmlns:xlink="http://www.w3.org/1999/xlink" viewBox="0 0 2597.57 756.91">
  <defs>
    <style>
      .cls-1, .cls-2 {
        fill: none;
      }

      .cls-2 {
        stroke: #c6c6c6;
        stroke-miterlimit: 10;
        stroke-width: 12px;
      }

      .cls-3 {
        fill: url(#linear-gradient);
      }

      .cls-4 {
        clip-path: url(#clippath);
      }

      .cls-5 {
        fill: #ed9532;
      }

      .cls-6 {
        fill: #214394;
      }

      .cls-7 {
        fill: #422a78;
      }

      .cls-8 {
        fill: #41265e;
      }

      .cls-9 {
        fill: #1b3572;
      }

      .cls-10 {
        fill: #182e64;
      }

      .cls-11 {
        fill: #562a7e;
      }

      .cls-12 {
        clip-path: url(#clippath-1);
      }

      .cls-13 {
        clip-path: url(#clippath-2);
      }

      .cls-14 {
        fill: url(#linear-gradient-8);
      }

      .cls-15 {
        fill: url(#linear-gradient-9);
      }

      .cls-16 {
        fill: url(#linear-gradient-3);
      }

      .cls-17 {
        fill: url(#linear-gradient-4);
      }

      .cls-18 {
        fill: url(#linear-gradient-2);
      }

      .cls-19 {
        fill: url(#linear-gradient-6);
      }

      .cls-20 {
        fill: url(#linear-gradient-7);
      }

      .cls-21 {
        fill: url(#linear-gradient-5);
      }

      .cls-22 {
        fill: #fff;
        font-family: Futura-Medium, Futura;
        font-size: 60.17px;
        font-weight: 500;
      }

      .cls-23 {
        fill: url(#linear-gradient-14);
      }

      .cls-24 {
        fill: url(#linear-gradient-18);
      }

      .cls-25 {
        fill: url(#linear-gradient-15);
      }

      .cls-26 {
        fill: url(#linear-gradient-19);
      }

      .cls-27 {
        fill: url(#linear-gradient-16);
      }

      .cls-28 {
        fill: url(#linear-gradient-17);
      }

      .cls-29 {
        fill: url(#linear-gradient-13);
      }

      .cls-30 {
        fill: url(#linear-gradient-12);
      }

      .cls-31 {
        fill: url(#linear-gradient-10);
      }

      .cls-32 {
        fill: url(#linear-gradient-11);
      }

      .cls-33 {
        letter-spacing: .12em;
      }

      .cls-34 {
        letter-spacing: .14em;
      }

      .cls-35 {
        letter-spacing: .15em;
      }
    </style>
    <clipPath id="clippath">
      <rect class="cls-1" y="77.13" width="1392.55" height="655.75"/>
    </clipPath>
    <linearGradient id="linear-gradient" x1="4703.32" y1="2715.64" x2="4714.48" y2="2715.64" gradientTransform="translate(-5141.88 -236519.79) rotate(118.6) scale(43.58 -43.58) skewX(.01)" gradientUnits="userSpaceOnUse">
      <stop offset="0" stop-color="#f1a435"/>
      <stop offset=".12" stop-color="#ed9532"/>
      <stop offset=".84" stop-color="#a72f76"/>
      <stop offset="1" stop-color="#a72f76"/>
    </linearGradient>
    <clipPath id="clippath-1">
      <path class="cls-1" d="m255.73,338.95c-96.44,30.23-146.38,149.03-103.87,268.13,3.41,9.59,7.4,19.14,12.04,28.67,59.46,122.25,177.8,94.4,177.8,94.4,0,0,42.82-81.04-36.26-143.95-55.21-43.94-83.91-87.8-57.32-156.41,1.4-3.64,3.08-7.39,4.86-11.17.29-.68.59-1.39.93-2.1,9.22-20.19,23.08-40.32,31.58-52.69,5.76-8.38,12.52-12.47,27.48-13.73,13.9-1.18,47.09-.43,55.98.24,12.88,1.04,18.51,3.13,25.16,13.09.15.25.31.48.47.74-19.03-35.42-80.18-43.58-138.86-25.2"/>
    </clipPath>
    <linearGradient id="linear-gradient-2" x1="4731.16" y1="2930.9" x2="4742.32" y2="2930.9" gradientTransform="translate(106609.8 171751.09) rotate(-90) scale(36.15 -36.14)" gradientUnits="userSpaceOnUse">
      <stop offset="0" stop-color="#87c451"/>
      <stop offset=".27" stop-color="#70ba4d"/>
      <stop offset="1" stop-color="#2d7444"/>
    </linearGradient>
    <linearGradient id="linear-gradient-3" x1="4854.47" y1="2897.56" x2="4865.63" y2="2897.56" gradientTransform="translate(141062.22 33545.43) rotate(-135.99) scale(25.55 -25.55) skewX(-.02)" gradientUnits="userSpaceOnUse">
      <stop offset="0" stop-color="#5db9b1"/>
      <stop offset=".26" stop-color="#55b39d"/>
      <stop offset=".89" stop-color="#34947b"/>
      <stop offset="1" stop-color="#34947b"/>
    </linearGradient>
    <linearGradient id="linear-gradient-4" x1="4629.96" y1="2643.17" x2="4641.12" y2="2643.17" gradientTransform="translate(-66338.39 -116355.83) rotate(90) scale(25.21 -25.2)" gradientUnits="userSpaceOnUse">
      <stop offset="0" stop-color="#1b4427"/>
      <stop offset=".91" stop-color="#308764"/>
      <stop offset="1" stop-color="#308764"/>
    </linearGradient>
    <clipPath id="clippath-2">
      <path class="cls-1" d="m487.51,250.46c-27.15-75.38-90.34-139.04-172.26-161C178.31,52.78,61.73,101.71,0,186.11c0,0,45.87,73.36,163.71,67.12,76.48-4.08,156.04,3.48,211.79,82.84,5.99,8.5,11.54,16.76,16.76,24.77.61.78,1.22,1.66,1.86,2.57,6.26,9.46,15.22,22.97,29.16,49,4.69,8.75,4.94,20.11-.51,31.32-5.88,12.15-19.05,37.74-25.13,47.32-4.33,6.86-14.58,17.68-27.55,18.82-.06,0-.12,0-.18.03,45.89-2.49,83.49-31.41,108.04-75.26,29-51.79,31.7-122.74,9.55-184.19"/>
    </clipPath>
    <linearGradient id="linear-gradient-5" x1="4623.4" y1="2736.79" x2="4634.56" y2="2736.79" gradientTransform="translate(-160607.71 -157794.38) rotate(75) scale(41.99 -41.98)" gradientUnits="userSpaceOnUse">
      <stop offset="0" stop-color="#78caf1"/>
      <stop offset=".6" stop-color="#57bcec"/>
      <stop offset=".6" stop-color="#57bcec"/>
      <stop offset="1" stop-color="#57bcec"/>
    </linearGradient>
    <linearGradient id="linear-gradient-6" x1="4625.57" y1="2707.51" x2="4636.73" y2="2707.51" gradientTransform="translate(-127755.95 -150519.03) rotate(80) scale(36.89 -36.88)" gradientUnits="userSpaceOnUse">
      <stop offset="0" stop-color="#2c90d7"/>
      <stop offset=".6" stop-color="#214394"/>
      <stop offset=".6" stop-color="#214394"/>
      <stop offset="1" stop-color="#19316a"/>
    </linearGradient>
    <linearGradient id="linear-gradient-7" x1="4770.87" y1="3030.38" x2="4782.03" y2="3030.38" gradientTransform="translate(62228.81 97778.38) rotate(-90) scale(20.4 -20.39)" gradientUnits="userSpaceOnUse">
      <stop offset="0" stop-color="#332c6e"/>
      <stop offset="1" stop-color="#9a775d"/>
    </linearGradient>
    <linearGradient id="linear-gradient-8" x1="4561.39" y1="2799.26" x2="4572.55" y2="2799.26" gradientTransform="translate(-195217.46 5430.97) rotate(30.01) scale(36.51 -36.52) skewX(-.01)" gradientUnits="userSpaceOnUse">
      <stop offset="0" stop-color="#2780c8"/>
      <stop offset="1" stop-color="#223886"/>
    </linearGradient>
    <linearGradient id="linear-gradient-9" x1="4943.51" y1="3041.11" x2="4954.67" y2="3041.11" gradientTransform="translate(70343.47 37772.13) rotate(-120.43) scale(13.64 -13.64) skewX(-.01)" gradientUnits="userSpaceOnUse">
      <stop offset="0" stop-color="#c35ca7"/>
      <stop offset="1" stop-color="#81277f"/>
    </linearGradient>
    <linearGradient id="linear-gradient-10" x1="5098.64" y1="3167.36" x2="5109.8" y2="3167.36" gradientTransform="translate(45676.03 24326) rotate(-120.43) scale(8.51 -8.51) skewX(-.01)" gradientUnits="userSpaceOnUse">
      <stop offset="0" stop-color="#96317c"/>
      <stop offset=".8" stop-color="#802774"/>
      <stop offset="1" stop-color="#802774"/>
    </linearGradient>
    <linearGradient id="linear-gradient-11" x1="4476.77" y1="2889.76" x2="4487.93" y2="2889.76" gradientTransform="translate(-93094.57 60774.07) scale(20.83 -20.84)" gradientUnits="userSpaceOnUse">
      <stop offset="0" stop-color="#41357a"/>
      <stop offset="1" stop-color="#773e94"/>
    </linearGradient>
    <linearGradient id="linear-gradient-12" x1="1685.19" y1="601.42" x2="1870.21" y2="-2.99" gradientUnits="userSpaceOnUse">
      <stop offset="0" stop-color="#1d3b7e"/>
      <stop offset="1" stop-color="#2056a6"/>
    </linearGradient>
    <linearGradient id="linear-gradient-13" x1="2364.8" y1="4119.98" x2="2868.9" y2="4119.98" gradientTransform="translate(5817.53 -3012.52) rotate(79.71)" gradientUnits="userSpaceOnUse">
      <stop offset="0" stop-color="#1d3b7e"/>
      <stop offset="1" stop-color="#69c5f0"/>
    </linearGradient>
    <linearGradient id="linear-gradient-14" x1="2436.61" y1="4170.51" x2="2928.03" y2="4170.51" gradientTransform="translate(5817.53 -3012.52) rotate(79.71)" xlink:href="#linear-gradient-12"/>
    <linearGradient id="linear-gradient-15" x1="2372.55" y1="4251.94" x2="2904.51" y2="4251.94" xlink:href="#linear-gradient-13"/>
    <linearGradient id="linear-gradient-16" x1="2308.64" y1="4198.83" x2="2800.09" y2="4198.83" gradientTransform="translate(5817.53 -3012.52) rotate(79.71)" xlink:href="#linear-gradient-12"/>
    <linearGradient id="linear-gradient-17" x1="1675.42" y1="601.42" x2="1860.44" y2="-2.99" gradientTransform="matrix(1,0,0,1,0,0)" xlink:href="#linear-gradient-13"/>
    <linearGradient id="linear-gradient-18" x1="1857.55" y1="311.11" x2="2477.1" y2="311.11" gradientTransform="matrix(1,0,0,1,0,0)" xlink:href="#linear-gradient-13"/>
    <linearGradient id="linear-gradient-19" x1="1695.7" y1="700.6" x2="2490.91" y2="700.6" gradientTransform="matrix(1,0,0,1,0,0)" xlink:href="#linear-gradient-13"/>
  </defs>
  <g id="Layer_1-2" data-name="Layer 1">
    <g>
      <g id="g11">
        <g id="g13">
          <g id="g15">
            <g id="g23">
              <g id="g101">
                <g id="g213">
                  <g id="g215">
                    <g id="g217">
                      <g id="g219">
                        <g class="cls-4">
                          <g id="g221">
                            <g id="g227">
                              <path id="path229" class="cls-6" d="m1392.55,319.66v225.42c0,1.69-.67,3.28-1.87,4.48-1.18,1.13-2.78,1.78-4.41,1.78l-52.78.07s.33-92.9,0-111.4c-.22-12.19,3.57-49.45,4.94-55.74,0-.06,0-.27.03-.44-.21-.98-1.03-.69-1.27-.52-.12.1-.31.32-.31.32l-59.87,96.61c-.35.66-.72,1.21-1.21,1.74-1.18,1.16-2.77,1.8-4.45,1.8l-14.71-.04h-.03l-14.73.04c-1.67,0-3.28-.64-4.44-1.8-.49-.52-.87-1.08-1.21-1.74l-59.87-96.61s-.19-.22-.29-.32c-.26-.17-1.09-.45-1.28.52,0,.17,0,.37.02.44,1.36,6.29,5.16,43.55,4.94,55.74-.33,18.5,0,111.4,0,111.4l-52.78-.07c-1.63,0-3.23-.65-4.41-1.78-1.2-1.19-1.88-2.79-1.88-4.48v-225.42c0-3.44,2.84-6.23,6.29-6.23h63.75c2.66,0,4.72,1.38,6.09,3.57,0,0,45.07,77.58,50.44,86.84,3.46,5.89,8.56,19.6,8.55,20.42v.1h.02c.04.42.37.72.78.73h.05c.4-.01.73-.32.78-.73h.03v-.1c-.03-.82,5.09-14.52,8.52-20.42,5.38-9.26,50.45-86.84,50.45-86.84,1.38-2.19,3.43-3.57,6.1-3.57h63.75c3.45,0,6.27,2.79,6.27,6.23Zm-378.42,84.55c-1.08-.33-2.05-.63-2.89-.92-16.87-5.66-30.74-14.29-31.4-25.92-.34-6.29,1.93-11.9,5.22-15.39,4.75-5.02,13.36-6.98,18.77-6.98,26.58,0,51.26,12.61,51.26,12.61l14.62-39.15c.53-1.58.47-3.32-.23-4.81-.71-1.52-2.01-2.71-3.6-3.27l-.31-.1c-12.81-4.8-35.9-11.88-62.46-12.28-51.57-.71-82.55,25.49-82.55,68.17,0,50.36,42.45,66.73,56.41,72.4,2.38.99,5.01,1.99,7.77,3.05,9.25,3.5,19.49,7.86,27.3,12.71,8.53,5.32,10.34,15.11,9,21.55-3.87,18.6-24.28,22.61-40.59,20.17-31.09-4.66-47.41-13.28-47.41-13.28l-13.35,39.46c-.98,2.89.29,6.06,2.96,7.53.26.13,28.75,14.57,65.29,14.57,41.76,0,90.52-19.9,90.52-76.1,0-51.71-44.8-67.82-64.34-74.04Zm-251.94,98.84c-20.24.89-32.74-.51-38.54-2.22l.04-137.83c6.39-1.01,20.89-2.33,40.2-1.61,24.12.92,64.62,9.47,64.62,64.5s-41.34,76.08-66.32,77.16Zm62.63-179.58c-33.77-14.89-74.78-15.81-97.78-14.89-47.53,1.88-62.47,5.98-62.47,5.98v228.21c0,2.75,1.72,5.18,4.25,6.04.12.05,21.48,6.39,58.65,7.38,47.82,1.26,82.73-5.09,108.78-22.52,34.95-23.39,52.16-56.66,52.16-105.31s-21.38-86.29-63.58-104.88"/>
                            </g>
                            <g id="g231">
                              <g id="g233">
                                <g id="g239">
                                  <path id="path251" class="cls-3" d="m541.06,96.41c-77.96,23.33-115.17,59.68-103.53,160.23,9.57,66.04,3.97,122.09-5.84,159.92-2.1,8.1-4.17,14.62-6.3,20.28-.64,2.29-1.51,4.6-2.63,6.89-5.88,12.15-19.05,37.74-25.13,47.32-4.58,7.26-15.82,19.05-29.9,18.92-13.65-.1-43.49-1.19-51.23-1.19s-21.17.84-21.17.84c19.88,21.41,54.68,40.91,101.62,41.38,34.98.36,74.5-9.56,112.3-36.7,137.22-98.44,103.16-349.21,31.8-417.89"/>
                                </g>
                              </g>
                            </g>
                            <g id="g253">
                              <g class="cls-12">
                                <g id="g255">
                                  <g id="g261">
                                    <g id="g267">
                                      <path id="path277" class="cls-18" d="m0,77.13h1392.55v655.58H0V77.13Z"/>
                                    </g>
                                  </g>
                                </g>
                              </g>
                            </g>
                            <g id="g279">
                              <g id="g281">
                                <g id="g287">
                                  <path id="path299" class="cls-16" d="m321.37,510.05c-10.04-1.34-18.36-1.26-23.56-3.25l-.04-.06c-4.55-1.71-8.81-4.76-12.45-10.12-8.27-12.17-24.65-40.31-30.36-51.97-6.18-12.56-5.62-18.17-1.05-28.15,9.24-20.19,23.1-40.32,31.59-52.67.2-.28.41-.59.61-.85-4.01,3.42-36.92,31.8-58.69,61.78-40.08,55.16-29.04,131.4,16.61,178.69,33.39,34.57,72.42,41.68,102.21,40.86,54.72-1.5,104.93-44.47,104.93-44.47-17.93-52.74-68.94-81.84-129.78-89.79"/>
                                </g>
                              </g>
                            </g>
                            <g id="g301">
                              <g id="g303">
                                <g id="g309">
                                  <path id="path319" class="cls-17" d="m346.23,644.31c.57,0,1.11-.05,1.66-.07-6.33-19.22-19.04-39.43-42.44-58.05-55.21-43.94-83.91-87.8-57.32-156.41,1.39-3.64,3.08-7.36,4.84-11.16.3-.68.61-1.4.93-2.12,9.24-20.19,23.1-40.32,31.59-52.67.2-.28.41-.56.59-.83-3.99,3.4-36.9,31.77-58.68,61.76-40.08,55.16-29.04,131.4,16.61,178.69,33.39,34.57,72.42,41.68,102.21,40.86"/>
                                </g>
                              </g>
                            </g>
                            <g id="g321">
                              <g class="cls-13">
                                <g id="g323">
                                  <g id="g329">
                                    <g id="g335">
                                      <path id="path347" class="cls-21" d="m0,77.13h1392.55v655.58H0V77.13Z"/>
                                    </g>
                                  </g>
                                </g>
                              </g>
                            </g>
                            <g id="g349">
                              <g id="g351">
                                <g id="g357">
                                  <path id="path369" class="cls-19" d="m434.8,281.09c-26.09-47.84-86.76-103.81-191.77-103.81-147.7,0-226.72,110.96-226.72,218.89,0,85.51,46.38,170.43,135.56,210.99-32.26-130.87,25.52-248.56,159.4-256.89.58-.07,1.14-.13,1.72-.18,13.9-1.18,47.09-.43,55.98.24,12.88,1.04,18.51,3.13,25.16,13.09,6.26,9.46,15.22,22.99,29.16,49,4.69,8.74,4.94,20.1-.51,31.32-5.12,10.6-15.8,31.39-22.48,42.9,1.43-1.65,32.56-38.15,42.11-62.05,22.62-56.52,6.1-118.4-7.61-143.5"/>
                                </g>
                              </g>
                            </g>
                            <g id="g371">
                              <g id="g373">
                                <g id="g379">
                                  <path id="path387" class="cls-20" d="m369.92,509.95c45.89-2.51,83.49-31.45,108.04-75.3,29-51.79,31.7-122.74,9.55-184.19-10.15-28.14-25.31-54.65-44.61-77.96-7.53,21.67-9.44,48.98-5.36,84.16,9.57,66.04,3.97,122.1-5.84,159.92-2.1,8.12-4.17,14.62-6.3,20.3-.64,2.29-1.51,4.58-2.63,6.88-5.88,12.17-19.05,37.74-25.13,47.31-4.33,6.86-14.59,17.73-27.55,18.83l-.18.06"/>
                                </g>
                              </g>
                            </g>
                            <g id="g389">
                              <g id="g391">
                                <g id="g397">
                                  <path id="path405" class="cls-14" d="m442.41,424.59c22.62-56.52,6.1-118.4-7.61-143.5-26.09-47.84-86.76-103.81-191.77-103.81-71.34,0-126.66,25.89-164.78,64.82,22.79,7.95,51.03,12.93,85.46,11.13,76.48-4.08,156.04,3.48,211.79,82.84,5.99,8.5,11.54,16.76,16.76,24.77h0c.3.38.58.77.88,1.17.32.46.65.94.97,1.4,6.26,9.46,15.22,22.99,29.16,49,4.69,8.74,4.94,20.1-.51,31.32-5.12,10.6-15.8,31.39-22.48,42.9,1.43-1.65,32.56-38.15,42.11-62.05"/>
                                </g>
                              </g>
                            </g>
                            <g id="g407">
                              <g id="g409">
                                <g id="g415">
                                  <path id="path423" class="cls-15" d="m528.71,534.95c-18.84-12.56-29.76-39.77-28.81-66.16,1.05-28.59-15.94-24.1-15.94-24.1,0,0-35.25,64.56-116.03,65.25h-.06c-14.73-.12-40.33-1.06-51.08-1.17-51.64.53-101.98,10.44-142.79,62.2,0,0,43.15-2.36,127.84,23.74,157.25,48.45,235-42.55,226.87-59.77"/>
                                </g>
                              </g>
                            </g>
                            <g id="g425">
                              <g id="g427">
                                <g id="g433">
                                  <path id="path443" class="cls-31" d="m483.96,444.68s-34.92,63.92-114.87,65.23c-.44.04-.89.07-1.35.04-4.05,0-9.54-.13-15.42-.3-13.26-.31-28.03-.78-35.53-.87-2.81.03-5.61.09-8.41.18-4.49.18-8.96.41-11.32.53-.57.06-1.13.11-1.69.16,19.89,21.38,54.67,40.89,101.59,41.35,34.98.36,74.5-9.59,112.3-36.7.28-.21.52-.41.8-.61-7.1-13.04-10.73-29.15-10.16-44.9,1.05-28.59-15.94-24.12-15.94-24.12"/>
                                </g>
                              </g>
                            </g>
                            <g id="g445">
                              <path id="path447" class="cls-9" d="m255.73,338.95c-96.44,30.23-146.38,149.03-103.86,268.15-32.25-130.87,25.53-248.51,159.39-256.83.58-.07,1.14-.13,1.72-.18,13.9-1.18,47.09-.43,55.98.24,12.88,1.04,18.51,3.13,25.16,13.09.15.25.31.48.47.74-19.03-35.42-80.18-43.58-138.86-25.2"/>
                            </g>
                            <g id="g449">
                              <g id="g451">
                                <g id="g457">
                                  <path id="path465" class="cls-32" d="m451.15,599.83c-17.94-52.72-68.95-81.83-129.78-89.78-4-.53-7.71-.83-11.08-1.16-49.35,1.37-97.18,12.52-136.3,62.1,0,0,43.15-2.36,127.84,23.74,62.45,19.24,112.34,16.48,149.32,5.11"/>
                                </g>
                              </g>
                            </g>
                            <g id="g467">
                              <path id="path469" class="cls-10" d="m441.59,296.25c2.99,48.82-2.11,90.31-9.89,120.31-2.1,8.12-4.17,14.62-6.3,20.28,0,0-.02.06-.02.11-.29,1.02-.63,2.06-1.02,3.08-.09.24-.16.43-.25.65-.35.9-.74,1.81-1.16,2.7-.06.13-.11.27-.18.37-5.12,10.6-15.76,31.34-22.44,42.88,1.69-1.99,32.57-38.24,42.08-62.02,18.9-47.26,10.46-98.21-.81-128.34"/>
                            </g>
                            <g id="g471">
                              <path id="path473" class="cls-7" d="m320.5,599.84c-4.46-4.64-10.29-9.18-15.93-13.65-27.05-21.53-46.85-42.99-57.79-67.39-26.16,8.69-51.71,24.37-73.64,52.19,0,0,43.14-2.36,127.82,23.74,6.38,1.96,13.42,3.59,19.53,5.12"/>
                            </g>
                            <g id="g475">
                              <path id="path477" class="cls-8" d="m368.84,509.95h-.97c-4.43-.04-9.87-.15-15.57-.28,5.91.15,11.4.28,15.44.31.37,0,.74-.03,1.1-.03"/>
                            </g>
                            <g id="g479">
                              <path id="path481" class="cls-8" d="m295.37,509.65c.57-.05,1.12-.1,1.69-.13-1.06.05-1.72.11-1.72.11l.02.02"/>
                            </g>
                            <g id="g483">
                              <path id="path485" class="cls-8" d="m295.37,509.65c.57-.05,1.12-.1,1.69-.13-1.06.05-1.72.11-1.72.11l.02.02"/>
                            </g>
                            <g id="g487">
                              <path id="path489" class="cls-8" d="m310.42,508.91c-.08-.02-.16-.02-.22-.02-.61.02-1.21.05-1.82.08.67-.03,1.36-.03,2.04-.05"/>
                            </g>
                            <g id="g491">
                              <path id="path493" class="cls-8" d="m310.42,508.91c-.08-.02-.16-.02-.22-.02-.61.02-1.21.05-1.82.08.67-.03,1.36-.03,2.04-.05"/>
                            </g>
                            <g id="g495">
                              <path id="path497" class="cls-11" d="m310.42,508.91c-.67.03-1.36.03-2.04.05-3.79.12-7.56.3-11.32.56-.57.03-1.12.07-1.68.12,19.9,21.38,54.66,40.9,101.58,41.36,6.8.09,13.78-.23,20.88-1.02-24.64-21.86-58.66-34.98-96.47-39.93-3.94-.53-7.62-.83-10.95-1.14"/>
                            </g>
                          </g>
                        </g>
                      </g>
                    </g>
                  </g>
                </g>
              </g>
            </g>
          </g>
        </g>
      </g>
      <g>
        <g>
          <path class="cls-30" d="m1849.06,431.71c-16.17-38.24-24.37-78.81-24.37-120.6s8.2-82.37,24.37-120.6c8.39-19.84,18.73-38.58,30.91-56.09V0h-178.02l-68.81,111.74h128.75v513.16h118.09v-137.09c-12.18-17.51-22.52-36.26-30.91-56.09Z"/>
          <g>
            <g>
              <path class="cls-29" d="m2000.26,395.74c36.44,72.01,116.99,114.72,200.47,99.57,15.24-2.77,29.73-7.3,43.23-13.37t.04-.03c115.79-40.16,188.26-159.74,165.69-284.09-13.08-72.04-55.46-131.39-112.65-167.94,88.43,40.89,156.24,122.77,174.96,225.92,9.01,49.67,5.64,98.72-7.93,143.98v.02c-30.37,67.92-90.25,121.87-167.87,141.88-122.85,31.7-247.92-32.54-295.96-145.94Z"/>
              <path class="cls-23" d="m2222.6,615.83c-41.32,7.5-82.22,6.42-120.88-1.97-71.15-24.84-130.49-81.08-156.44-158.04-43.09-127.74,21.65-265.83,145.2-315.46-76.7,34.4-123.06,117.75-107.38,204.18,3.31,18.26,9.17,35.43,17.16,51.19,48.04,113.4,173.11,177.64,295.96,145.94,77.62-20,137.49-73.95,167.87-141.88-32.39,108.08-122.86,194.49-241.49,216.02Z"/>
            </g>
            <g>
              <path class="cls-25" d="m2101.72,613.86c-118.71-25.74-216.1-120.48-239.15-247.44-7.5-41.32-6.42-82.22,1.95-120.85,22.98-64.7,72.06-119.89,140.34-148.61,123.57-51.95,265.09,1.64,324.19,119.8-36.96-63.32-109.17-101.04-185.19-91.38-3.33.42-6.67.93-10.01,1.54-15.31,2.78-29.82,7.34-43.39,13.44-123.54,49.62-188.28,187.72-145.2,315.46,25.95,76.96,85.29,133.21,156.44,158.04Z"/>
              <path class="cls-27" d="m2244.01,481.92c76.77-34.37,123.18-117.75,107.49-204.24-4-22.03-11.7-42.44-22.34-60.73-.04-.06-.07-.12-.09-.19-59.1-118.16-200.62-171.75-324.19-119.8-68.28,28.72-117.36,83.9-140.34,148.61,25.76-118.72,120.48-216.13,247.46-239.17,65.13-11.82,129.19-2.33,185.04,23.5h.02c57.18,36.55,99.57,95.89,112.65,167.93,22.57,124.35-49.9,243.93-165.69,284.09Z"/>
            </g>
          </g>
          <path class="cls-28" d="m1839.29,431.71c-16.17-38.24-24.37-78.81-24.37-120.6s8.2-82.37,24.37-120.6c8.39-19.84,18.73-38.58,30.91-56.09V0h-178.02l-68.81,111.74h128.75v513.16h118.09v-137.09c-12.18-17.51-22.52-36.26-30.91-56.09Z"/>
          <path class="cls-24" d="m2452.73,190.51c-15.61-36.9-37.93-70.02-66.36-98.45-28.43-28.43-61.55-50.75-98.44-66.36-38.24-16.17-78.81-24.37-120.6-24.37s-82.36,8.2-120.6,24.37c-36.9,15.61-70.02,37.93-98.44,66.36-28.43,28.43-50.75,61.55-66.36,98.45-16.17,38.24-24.37,78.81-24.37,120.6s8.2,82.36,24.37,120.6c15.61,36.9,37.93,70.02,66.36,98.45,28.43,28.43,61.55,50.75,98.45,66.36,38.24,16.17,78.81,24.37,120.6,24.37s82.36-8.2,120.6-24.37c36.9-15.61,70.02-37.93,98.44-66.36,28.43-28.43,50.75-61.55,66.36-98.44,16.17-38.24,24.37-78.81,24.37-120.6s-8.2-82.37-24.37-120.6Zm-285.41,321.25c-110.82,0-200.65-89.83-200.65-200.65s89.83-200.65,200.65-200.65,200.65,89.83,200.65,200.65-89.83,200.65-200.65,200.65Z"/>
          <g>
            <path class="cls-5" d="m2501.07,107.37v17.6l-11.15.41c-11.13.38-18.73-1.54-22.8-5.78-2.64-2.7-3.97-6.86-3.97-12.48v-55.44h-12.56v-16.77h12.56v-8.81l23.3-16.3v25.12h14.62v16.77h-14.62v47.59c0,3.69.47,5.99,1.4,6.9.94.91,3.8,1.36,8.59,1.36.71,0,1.47-.01,2.27-.04.8-.03,1.58-.07,2.35-.12Z"/>
            <path class="cls-5" d="m2597.57,71.27v52.88h-24.04v-54.78c0-4.85-.83-8.76-2.48-11.73-2.15-4.19-6.23-6.28-12.23-6.28s-10.95,2.08-14.17,6.24c-3.22,4.16-4.83,10.09-4.83,17.8v48.75h-23.46V21.44l23.46-18.66v43.05c3.41-5.23,7.37-8.88,11.86-10.95,4.49-2.07,9.21-3.1,14.17-3.1,5.56,0,10.62.96,15.16,2.89,4.54,1.93,8.27,4.87,11.2,8.84,2.48,3.36,3.99,6.82,4.54,10.37.55,3.55.83,9.35.83,17.39Z"/>
          </g>
        </g>
        <g>
          <polygon class="cls-26" points="2425.89 756.91 2490.91 644.29 1760.73 644.29 1695.7 756.91 2425.89 756.91"/>
          <text class="cls-22" transform="translate(1823.58 718.95)"><tspan class="cls-35" x="0" y="0">ANNIVER</tspan><tspan class="cls-34" x="338.05" y="0">S</tspan><tspan class="cls-35" x="381.69" y="0">A</tspan><tspan class="cls-33" x="435.29" y="0">R</tspan><tspan class="cls-35" x="478.54" y="0">Y</tspan></text>
        </g>
      </g>
      <line class="cls-2" x1="1519.46" x2="1519.46" y2="756.91"/>
    </g>
  </g>
</svg>