<?xml version="1.0" encoding="UTF-8"?>
<svg id="Layer_2" data-name="Layer 2" xmlns="http://www.w3.org/2000/svg" viewBox="0 0 798.51 281.33">
  <defs>
    <style>
      .cls-1 {
        fill: none;
      }

      .cls-1, .cls-2, .cls-3 {
        stroke-width: 0px;
      }

      .cls-2 {
        fill: #a30a24;
      }

      .cls-3 {
        fill: #fff;
      }
    </style>
  </defs>
  <g id="Layer_2-2" data-name="Layer 2">
    <g>
      <path class="cls-1" d="M472.09,122.51c-5.72-.12-11.44,0-17.17.39,0,6.47,0,13.17,0,20.11,5.72-.3,11.44-.39,17.17-.3,1.34.02,2.57-.42,3.7-1.34,1.13-.91,2.02-2.14,2.69-3.68.67-1.54,1.01-3.23,1-5.06,0-2.75-.73-5.1-2.19-7.08-1.46-1.97-3.2-2.98-5.2-3.03Z"/>
      <path class="cls-1" d="M670.76,80.14c3.9.7,7.26-.49,10.09-3.65,2.83-3.17,4.25-7.43,4.25-12.76,0-5.34-1.42-10.15-4.25-14.31-2.83-4.16-6.2-6.45-10.09-6.87-11.09-1.2-22.19-2.82-33.28-4.68,0,12.03,0,23.54,0,34.53,11.09,3.08,22.19,5.75,33.28,7.74Z"/>
      <path class="cls-3" d="M410.32,57.63c15.87-7.11,31.75-10.72,47.62-11.74v48.18c9.5-.6,19-.3,28.5.71,0-48.15,0-79.74,0-94.77h-28.5v24.11c-15.88.79-31.75,3.58-47.62,9.08V0h-28.68v122.16c9.56-6.91,19.12-12.36,28.68-16.57v-47.97Z"/>
      <path class="cls-3" d="M596.57,98.33c-21.42-8.55-42.84-17.39-64.27-24.1v-17.91c13.46,4.01,26.91,8.81,40.37,13.85,0-9.28,0-18.38,0-27.29-13.46-3.89-26.91-7.6-40.37-10.7v-13.98c20.66,3.23,41.31,7.44,61.97,11.56,0-9.86,0-19.78,0-29.76h-90.65v97.32c30.98,5.84,61.97,17.94,92.95,29.48v-28.48Z"/>
      <path class="cls-3" d="M637.47,104.02c3.25,1.07,6.49,2.11,9.74,3.09,12.22,17.13,24.43,32.68,36.65,45.05,10.74,1.54,21.48,2.25,32.22,1.83-12.45-10.23-24.9-23.84-37.36-40.13,10.03-.28,18.35-4.83,24.96-13.96,6.61-9.17,9.92-20.82,9.92-35.03,0-16.17-4.19-31.33-12.57-44.62C692.65,6.9,682.56-.09,670.76,0h-61.97v131.31c9.56,3.48,19.12,6.82,28.68,9.82,0-11.45,0-23.82,0-37.11ZM637.47,37.87c11.09,1.86,22.19,3.47,33.28,4.68,3.9.42,7.26,2.7,10.09,6.87,2.83,4.16,4.25,8.97,4.25,14.31,0,5.33-1.42,9.59-4.25,12.76-2.83,3.17-6.2,4.35-10.09,3.65-11.09-1.99-22.19-4.66-33.28-7.74,0-10.99,0-22.5,0-34.53Z"/>
      <path class="cls-3" d="M746,102.54v22.81c9.56-2.63,19.12-6.44,28.68-11.64v-22.22c7.14-3.69,14.28-8.12,21.42-13.38v-29.09c-7.14,4.06-14.28,7.48-21.42,10.34v-25.77c-9.56,2.4-19.12,4.16-28.68,5.38v28.94c-7.14,1.44-14.28,2.4-21.42,2.94,0,12.73,0,24.57,0,35.5,7.14-.7,14.28-1.94,21.42-3.8Z"/>
      <path class="cls-3" d="M385.49,162.32c1.86.76,3.99,1.31,6.39,1.67,2.4.36,4.85.49,7.35.34,2.49-.15,4.93-.2,7.3-.15,2.37.05,4.5.14,6.39.23,1.89.09,3.39.51,4.52,1.23,1.13.73,1.69,1.86,1.69,3.38,0,4.26-4.29,6.81-12.87,7.97-2.98.43-5.92.26-8.81-.36-2.89-.62-5.37-1.69-7.44-3.16-3.23,4.76-6.45,9.25-9.68,13.29,3.1,2.68,6.95,5.04,11.55,6.9,4.6,1.86,9.39,3.03,14.38,3.03,9.68.04,16.71-2.49,21.09-7.85,4.38-5.31,6.57-13.18,6.57-22.85,0-4.78-.73-8.74-2.19-11.86-1.46-3.12-3.36-5.31-5.71-6.59-2.34-1.28-4.95-2.11-7.81-2.47-2.86-.36-5.71-.4-8.54-.14-2.83.26-5.42.57-7.76.89-2.34.32-4.25.33-5.71,0-1.46-.32-2.19-1.17-2.19-2.59,0-.95.4-1.96,1.19-3.04.79-1.08,1.87-2.13,3.24-3.12,1.37-.99,2.8-1.87,4.29-2.63,1.49-.76,3.09-1.47,4.79-2.12,2.62-1,5.2-1.38,7.76-1.11,2.56.27,4.66.91,6.3,1.87,3.29-5.28,6.57-10.5,9.86-15.58-3.04-2.7-6.77-4.25-11.19-4.56-4.42-.3-9.08.66-14.02,2.9-8.04,3.65-14.55,9.44-19.54,16.19-4.99,6.8-7.49,13.09-7.49,18.83,0,3.17.58,5.62,1.73,7.51,1.16,1.89,2.66,3.2,4.52,3.96Z"/>
      <path class="cls-3" d="M472.09,103.65c-10.65-.26-21.3.44-31.96,2.36,0,25.72,0,55.6,0,89.66,4.93-.01,9.86-.02,14.79-.03,0-10.75,0-21.07,0-30.97,5.72-.19,11.44-.25,17.17-.19,6.09.08,11.29-3.09,15.61-9.17,4.32-6.07,6.48-13.22,6.48-21.48,0-8.24-2.16-15.22-6.48-21.12-4.32-5.87-9.53-8.91-15.61-9.07ZM478.48,137.68c-.67,1.54-1.57,2.77-2.69,3.68-1.13.91-2.36,1.36-3.7,1.34-5.72-.09-11.44,0-17.17.3,0-6.94,0-13.64,0-20.11,5.72-.39,11.44-.51,17.17-.39,2.01.04,3.74,1.05,5.2,3.03,1.46,1.98,2.19,4.33,2.19,7.08,0,1.83-.34,3.52-1,5.06Z"/>
      <path class="cls-3" d="M547.69,195.85c0-6.51,0-12.91,0-19.18-11.05-1.13-22.1-2.15-33.14-2.95,0-4.71,0-9.34,0-13.88,6.94.77,13.88,1.68,20.82,2.68v-18.83c-6.94-1.45-13.88-2.76-20.82-3.89,0-4.28,0-8.48,0-12.58,10.65,2.01,21.31,4.55,31.96,7.38,0-5.74,0-11.35,0-16.85-15.58-4.84-31.17-8.93-46.75-11.45,0,25.66,0,55.45,0,89.36,15.98.04,31.96.1,47.94.17Z"/>
      <path class="cls-3" d="M581.84,129.01c-5.78-2.05-11.14-2.44-16.07-.94-4.93,1.5-8.83,4.65-11.69,9.55-2.86,4.89-4.29,11-4.29,18.12,0,7.12,1.43,14.14,4.29,20.6,2.86,6.47,6.76,11.59,11.69,15.19,4.93,3.61,10.29,5.19,16.07,5.18,4.81,0,9.34-1.09,13.6-2.94,4.26-1.86,7.88-4.23,10.87-7.11-3.5-3.37-7-7.03-10.5-10.93-1.64,1.89-3.68,3.34-6.12,4.34-2.43,1-5.05,1.39-7.85,1.08-3.11-.34-5.98-1.5-8.63-3.58-2.65-2.08-4.75-4.81-6.3-8.18-1.55-3.36-2.33-6.93-2.33-10.58,0-2.75.46-5.25,1.37-7.46.91-2.21,2.15-3.95,3.7-5.24,1.55-1.29,3.39-2.1,5.52-2.47,2.13-.36,4.35-.18,6.67.53,2.8.85,5.42,2.33,7.85,4.35,2.43,2.03,4.47,4.37,6.12,7,3.5-2.43,7-4.71,10.5-6.89-2.98-4.29-6.61-8.22-10.87-11.72-4.26-3.5-8.8-6.17-13.6-7.88Z"/>
      <path class="cls-3" d="M627.13,158.15c0,13.93,0,26.63,0,38.1,4.93.02,9.86.05,14.79.07,0-9.79,0-21.23,0-34.33,6.54,1.6,13.09,3.06,19.63,4.33,0-3.66,0-7.51,0-11.56-18.02-4.08-36.04-9.86-54.05-16.08,0,4.68,0,9.29,0,13.86,6.54,1.94,13.09,3.82,19.63,5.61Z"/>
      <path class="cls-3" d="M666.21,196.4c4.93.02,9.86.03,14.79.04,0-8.47,0-21.14,0-38.01-4.93-.73-9.86-1.63-14.79-2.66v40.63Z"/>
      <path class="cls-3" d="M715.79,188.08c-5.33-6.95-10.65-16.06-15.98-27.69-4.93-.28-9.86-.75-14.79-1.4,7.79,17.85,15.58,30.16,23.37,37.48,4.9,0,9.8,0,14.7,0,7.79-7.58,15.58-20.89,23.37-40.08-4.9,1.21-9.8,2.14-14.7,2.82-5.33,12.21-10.65,21.77-15.98,28.88Z"/>
      <path class="cls-3" d="M797.32,132.97c-15.58,10.84-31.17,18.01-46.75,22.34,0,17.39,0,31.09,0,41.09,15.98-.07,31.96-.17,47.94-.34,0-4.93,0-9.86,0-14.79-11.05,2.56-22.1,4.52-33.14,5.96,0-2.11,0-4.28,0-6.52,6.94-1.4,13.88-3.11,20.82-5.17,0-4.26,0-8.58,0-12.98-6.94,2.99-13.88,5.47-20.82,7.5,0-2.45,0-4.96,0-7.54,10.65-3.64,21.3-8.52,31.96-14.87v-14.67Z"/>
      <path class="cls-3" d="M459.25,246.31c0-1-.36-1.85-1.08-2.56-.72-.7-1.57-1.05-2.56-1.05h-8.43v7.22h8.43c.99,0,1.84-.35,2.56-1.05.72-.7,1.08-1.55,1.08-2.56Z"/>
      <path class="cls-3" d="M772.42,246.31c0-1-.36-1.85-1.08-2.56-.72-.7-1.57-1.05-2.56-1.05h-8.43v7.22h8.43c.99,0,1.84-.35,2.56-1.05.72-.7,1.08-1.55,1.08-2.56Z"/>
      <polygon class="cls-3" points="661.97 254.77 668.84 254.77 665.43 245.35 661.97 254.77"/>
      <polygon class="cls-3" points="389.85 254.77 396.71 254.77 393.3 245.35 389.85 254.77"/>
      <path class="cls-3" d="M0,220.19v61.14h798.51v-61.14H0ZM401.15,266.83l-1.79-4.84h-12.16l-1.75,4.84h-7.27l11.48-31.4h7.22l11.48,31.4h-7.22ZM458.93,266.83l-9.29-9.65h-2.47v9.65h-7.27v-31.4h15.7c2.99,0,5.55,1.06,7.67,3.19,2.12,2.12,3.19,4.68,3.19,7.67,0,2.63-.84,4.95-2.51,6.95-1.68,2-3.78,3.25-6.33,3.72l9.47,9.87h-8.17ZM523.76,242.7h-9.65v24.14h-7.27v-24.14h-9.65v-7.27h26.56v7.27ZM624.29,242.7h-16.28v4.8h10.23v7.27h-10.23v12.07h-7.27v-31.4h23.55v7.27ZM673.28,266.83l-1.79-4.84h-12.16l-1.75,4.84h-7.27l11.48-31.4h7.22l11.48,31.4h-7.22ZM719.31,266.83h-7.27v-31.4h7.27v31.4ZM772.11,266.83l-9.29-9.65h-2.47v9.65h-7.27v-31.4h15.7c2.99,0,5.55,1.06,7.67,3.19,2.12,2.12,3.19,4.68,3.19,7.67,0,2.63-.84,4.95-2.51,6.95-1.68,2-3.78,3.25-6.33,3.72l9.47,9.87h-8.17Z"/>
      <path class="cls-2" d="M389.67,235.43l-11.48,31.4h7.27l1.75-4.84h12.16l1.79,4.84h7.22l-11.48-31.4h-7.22ZM389.85,254.77l3.45-9.42,3.41,9.42h-6.86Z"/>
      <path class="cls-2" d="M463.96,253.24c1.67-2,2.51-4.32,2.51-6.95,0-2.99-1.06-5.55-3.19-7.67-2.12-2.12-4.68-3.19-7.67-3.19h-15.7v31.4h7.27v-9.65h2.47l9.29,9.65h8.17l-9.47-9.87c2.54-.48,4.65-1.72,6.33-3.72ZM447.18,249.92v-7.22h8.43c.99,0,1.84.35,2.56,1.05.72.7,1.08,1.56,1.08,2.56s-.36,1.86-1.08,2.56c-.72.7-1.57,1.05-2.56,1.05h-8.43Z"/>
      <polygon class="cls-2" points="497.2 242.7 506.85 242.7 506.85 266.83 514.11 266.83 514.11 242.7 523.76 242.7 523.76 235.43 497.2 235.43 497.2 242.7"/>
      <polygon class="cls-2" points="600.74 266.83 608.01 266.83 608.01 254.77 618.24 254.77 618.24 247.5 608.01 247.5 608.01 242.7 624.29 242.7 624.29 235.43 600.74 235.43 600.74 266.83"/>
      <path class="cls-2" d="M661.8,235.43l-11.48,31.4h7.27l1.75-4.84h12.16l1.79,4.84h7.22l-11.48-31.4h-7.22ZM661.97,254.77l3.45-9.42,3.41,9.42h-6.86Z"/>
      <rect class="cls-2" x="712.04" y="235.43" width="7.27" height="31.4"/>
      <path class="cls-2" d="M777.13,253.24c1.67-2,2.51-4.32,2.51-6.95,0-2.99-1.06-5.55-3.19-7.67-2.12-2.12-4.68-3.19-7.67-3.19h-15.7v31.4h7.27v-9.65h2.47l9.29,9.65h8.17l-9.47-9.87c2.54-.48,4.65-1.72,6.33-3.72ZM760.36,249.92v-7.22h8.43c.99,0,1.84.35,2.56,1.05.72.7,1.08,1.56,1.08,2.56s-.36,1.86-1.08,2.56c-.72.7-1.57,1.05-2.56,1.05h-8.43Z"/>
    </g>
  </g>
</svg>