<?xml version="1.0" encoding="UTF-8"?>
<svg id="Layer_2" data-name="Layer 2" xmlns="http://www.w3.org/2000/svg" viewBox="0 0 394.72 276.68">
  <defs>
    <style>
      .cls-1 {
        fill: #fff;
      }

      .cls-2 {
        fill: #fc0;
      }

      .cls-3 {
        fill: #ff2400;
      }

      .cls-4 {
        fill: #a30a24;
      }
    </style>
  </defs>
  <g id="Layer_1-2" data-name="Layer 1">
    <g>
      <g>
        <polygon class="cls-1" points="323.36 217.86 175.09 217.86 175.09 188.28 329.06 188.28 323.36 217.86"/>
        <rect class="cls-1" y="188.28" width="147.82" height="29.58"/>
        <g>
          <path class="cls-4" d="m187.59,214.72l7.72-22.08h6.45l7.3,22.08h-6.06l-.8-2.47h-7.81l-.84,2.47h-5.96Zm8.4-7.99h4.54l-2.28-7.45-2.26,7.45Z"/>
          <path class="cls-4" d="m211.04,214.72v-22.08h6.24c2.91,0,5.12.6,6.66,1.79,1.53,1.19,2.3,2.92,2.3,5.19,0,1.31-.31,2.44-.94,3.4-.62.96-1.48,1.63-2.56,2l4.86,9.7h-6.27l-4.57-9.46v9.46h-5.72Zm5.72-11.7h.56c1.03,0,1.81-.23,2.34-.7.54-.47.81-1.15.81-2.04s-.26-1.6-.78-2.07c-.52-.48-1.26-.72-2.22-.72h-.71v5.53Z"/>
          <path class="cls-4" d="m237.85,198.23v16.5h-5.75v-16.5h-4.48l.59-5.58h13.5l.62,5.58h-4.48Z"/>
          <path class="cls-4" d="m253.02,214.72v-22.08h12.11l.89,5.87h-7.28v2.25h4.57v5.84h-4.57v8.13h-5.72Z"/>
          <path class="cls-4" d="m264.48,214.72l7.72-22.08h6.45l7.3,22.08h-6.06l-.8-2.47h-7.81l-.84,2.47h-5.96Zm8.4-7.99h4.54l-2.28-7.45-2.26,7.45Z"/>
          <path class="cls-4" d="m293.86,214.72h-5.71v-22.08h5.71v22.08Z"/>
          <path class="cls-4" d="m297.87,214.72v-22.08h6.24c2.91,0,5.12.6,6.66,1.79,1.53,1.19,2.3,2.92,2.3,5.19,0,1.31-.31,2.44-.94,3.4-.62.96-1.48,1.63-2.56,2l4.86,9.7h-6.27l-4.57-9.46v9.46h-5.72Zm5.72-11.7h.56c1.03,0,1.81-.23,2.34-.7.54-.47.81-1.15.81-2.04s-.26-1.6-.78-2.07c-.52-.48-1.26-.72-2.22-.72h-.71v5.53Z"/>
        </g>
      </g>
      <g>
        <path class="cls-1" d="m360.74,36.99h10.67v22.14h21.56v10.35h-21.56v22.23h-10.67v-22.23h-21.56v-10.35h21.56v-22.14Z"/>
        <g>
          <g>
            <path class="cls-2" d="m125.85,107.98V4.74h26.73v36.11h22.5V4.74h26.73v103.24h-26.73v-40.13h-22.5v40.13h-26.73Z"/>
            <path class="cls-2" d="m275.65,100.79c-4.42,2.82-9.09,4.94-14,6.35-4.91,1.41-10.07,2.12-15.48,2.12-11.33,0-20.5-3.48-27.5-10.44-7.01-6.96-10.51-15.98-10.51-27.08s3.68-20.19,11.04-27.72c7.36-7.52,16.4-11.28,27.12-11.28,7.9,0,14.81,2.23,20.73,6.7,5.92,4.47,10.23,10.7,12.91,18.69l-39.7,27.93c1.27.52,2.59.91,3.95,1.16,1.36.26,2.89.39,4.58.39,4,0,8.12-.94,12.38-2.82,4.25-1.88,8.45-4.63,12.59-8.25l1.9,24.26Zm-44.99-29.27l22.57-16.29c-.99-.99-2.12-1.7-3.38-2.15-1.27-.45-2.75-.67-4.44-.67-4.04,0-7.58,1.55-10.61,4.65s-4.55,6.7-4.55,10.79c0,.56.04,1.15.11,1.76.07.61.18,1.25.32,1.9Z"/>
            <path class="cls-2" d="m283.27,107.98V33.72h24.4v7.69c1.74-2.73,3.92-4.77,6.56-6.14,2.63-1.36,5.88-2.12,9.73-2.26l.07,25.6h-2.89c-4.37,0-7.71,1.2-10.01,3.6-2.3,2.4-3.46,5.85-3.46,10.37v35.4h-24.4Z"/>
          </g>
          <g>
            <path class="cls-3" d="m129.02,105.41V2.17h26.73v36.11h22.5V2.17h26.73v103.24h-26.73v-40.13h-22.5v40.13h-26.73Z"/>
            <path class="cls-3" d="m278.82,98.22c-4.42,2.82-9.09,4.94-14,6.35-4.91,1.41-10.07,2.12-15.48,2.12-11.33,0-20.5-3.48-27.5-10.44-7.01-6.96-10.51-15.98-10.51-27.08s3.68-20.19,11.04-27.72c7.36-7.52,16.4-11.28,27.12-11.28,7.9,0,14.81,2.23,20.73,6.7,5.92,4.47,10.23,10.7,12.91,18.69l-39.7,27.93c1.27.52,2.59.91,3.95,1.16,1.36.26,2.89.39,4.58.39,4,0,8.12-.94,12.38-2.82,4.25-1.88,8.45-4.63,12.59-8.25l1.9,24.26Zm-44.99-29.27l22.57-16.29c-.99-.99-2.12-1.7-3.38-2.15-1.27-.45-2.75-.67-4.44-.67-4.04,0-7.58,1.55-10.61,4.65-3.03,3.1-4.55,6.7-4.55,10.79,0,.56.04,1.15.11,1.76.07.61.18,1.25.32,1.9Z"/>
            <path class="cls-3" d="m286.44,105.41V31.15h24.4v7.69c1.74-2.73,3.92-4.77,6.56-6.14,2.63-1.36,5.88-2.12,9.73-2.26l.07,25.6h-2.89c-4.37,0-7.71,1.2-10.01,3.6-2.3,2.4-3.46,5.85-3.46,10.37v35.4h-24.4Z"/>
          </g>
          <g>
            <path class="cls-1" d="m132.76,103.24V0h26.73v36.11h22.5V0h26.73v103.24h-26.73v-40.13h-22.5v40.13h-26.73Z"/>
            <path class="cls-1" d="m282.55,96.05c-4.42,2.82-9.09,4.94-14,6.35-4.91,1.41-10.07,2.12-15.48,2.12-11.33,0-20.5-3.48-27.5-10.44-7.01-6.96-10.51-15.98-10.51-27.08s3.68-20.19,11.04-27.72c7.36-7.52,16.4-11.28,27.12-11.28,7.9,0,14.81,2.23,20.73,6.7,5.92,4.47,10.23,10.7,12.91,18.69l-39.7,27.93c1.27.52,2.59.91,3.95,1.16,1.36.26,2.89.39,4.58.39,4,0,8.12-.94,12.38-2.82,4.25-1.88,8.45-4.63,12.59-8.25l1.9,24.26Zm-44.99-29.27l22.57-16.29c-.99-.99-2.12-1.7-3.38-2.15-1.27-.45-2.75-.67-4.44-.67-4.04,0-7.58,1.55-10.61,4.65s-4.55,6.7-4.55,10.79c0,.56.04,1.15.11,1.76.07.61.18,1.25.32,1.9Z"/>
            <path class="cls-1" d="m290.18,103.24V28.98h24.4v7.69c1.74-2.73,3.92-4.77,6.56-6.14,2.63-1.36,5.88-2.12,9.73-2.26l.07,25.6h-2.89c-4.37,0-7.71,1.2-10.01,3.6-2.3,2.4-3.46,5.85-3.46,10.37v35.4h-24.4Z"/>
          </g>
        </g>
        <g>
          <g>
            <path class="cls-2" d="m127.55,176.96v-13.45c.84.38,1.6.66,2.26.84.67.18,1.3.27,1.9.27,1.09,0,1.96-.27,2.61-.8s.98-1.22.98-2.06c0-1.11-1.18-2.76-3.55-4.93-.57-.52-1.03-.94-1.39-1.26-1.28-1.22-2.24-2.55-2.87-3.98-.64-1.43-.96-2.96-.96-4.59,0-4.05,1.46-7.22,4.38-9.52,2.92-2.3,6.98-3.45,12.17-3.45.98,0,2,.05,3.08.16,1.07.11,2.22.27,3.45.49v12.64c-.82-.41-1.62-.71-2.41-.9-.79-.19-1.55-.29-2.28-.29-1.06,0-1.9.22-2.51.67-.61.45-.92,1.05-.92,1.81,0,.49.16,1,.49,1.53s.99,1.31,2,2.34c2.69,2.64,4.48,4.86,5.36,6.67.88,1.81,1.32,3.81,1.32,6.01,0,3.97-1.31,7.05-3.93,9.23-2.62,2.19-6.31,3.28-11.07,3.28-.92,0-1.96-.05-3.12-.14-1.16-.1-2.82-.29-4.99-.59Z"/>
            <path class="cls-2" d="m166.77,175.37v101.31h-14.11v-142.25h13.86v4.12c1.74-1.58,3.52-2.72,5.34-3.45,1.82-.72,3.83-1.08,6.03-1.08,5.44,0,10.06,2.12,13.88,6.36,3.82,4.24,5.73,9.42,5.73,15.53,0,6.41-1.99,11.72-5.97,15.9-3.98,4.19-8.98,6.28-14.98,6.28-1.9,0-3.66-.22-5.26-.67-1.6-.45-3.11-1.13-4.53-2.06Zm8.52-11.86c2.17,0,4.02-.74,5.52-2.22s2.26-3.27,2.26-5.36-.76-3.93-2.28-5.44c-1.52-1.51-3.36-2.26-5.5-2.26s-3.99.75-5.52,2.24c-1.54,1.5-2.3,3.32-2.3,5.46s.76,3.91,2.28,5.38c1.52,1.47,3.37,2.2,5.54,2.2Z"/>
            <path class="cls-2" d="m237.1,173.21c-2.56,1.63-5.25,2.85-8.09,3.67-2.84.82-5.82,1.22-8.95,1.22-6.55,0-11.85-2.01-15.9-6.03-4.05-4.02-6.07-9.24-6.07-15.66s2.13-11.67,6.38-16.02c4.25-4.35,9.48-6.52,15.68-6.52,4.57,0,8.56,1.29,11.99,3.87,3.42,2.58,5.91,6.18,7.46,10.8l-22.95,16.15c.73.3,1.49.52,2.28.67.79.15,1.67.22,2.65.22,2.31,0,4.69-.54,7.16-1.63,2.46-1.09,4.89-2.68,7.28-4.77l1.1,14.02Zm-26.01-16.92l13.05-9.42c-.57-.57-1.22-.99-1.96-1.24-.73-.26-1.59-.39-2.57-.39-2.34,0-4.38.9-6.14,2.69s-2.63,3.87-2.63,6.24c0,.33.02.67.06,1.02.04.35.1.72.18,1.1Z"/>
            <path class="cls-2" d="m269.64,177.04c-1.33.33-2.66.57-3.98.73-1.32.16-2.66.24-4.02.24-6.33,0-11.48-2.08-15.43-6.24-3.95-4.16-5.93-9.59-5.93-16.31s2.08-11.57,6.24-15.55c4.16-3.98,9.58-5.97,16.27-5.97,1.17,0,2.32.08,3.47.24,1.14.16,2.27.42,3.38.77v14.02c-1.36-.35-2.51-.61-3.47-.77-.95-.16-1.79-.24-2.53-.24-2.83,0-5.02.69-6.58,2.08-1.56,1.39-2.34,3.32-2.34,5.79s.82,4.32,2.47,5.79c1.64,1.47,3.83,2.2,6.54,2.2.76,0,1.61-.05,2.55-.16.94-.11,2.06-.27,3.36-.49v13.86Z"/>
            <path class="cls-2" d="m292.6,177.36c-1.06.16-2.06.29-3,.37-.94.08-1.85.12-2.75.12-4.68,0-7.89-.97-9.64-2.92-1.75-1.94-2.63-6-2.63-12.17v-15.53h-2.69v-12.8h2.69v-4.57l14.11-8.19v12.76h5.34v12.8h-5.34v9.66c0,2.34.28,3.89.84,4.65.56.76,1.61,1.14,3.16,1.14.6,0,1.08-.01,1.45-.04.37-.03.73-.08,1.08-.16l-2.61,14.88Z"/>
            <path class="cls-2" d="m297.37,130.68v-13.01h14.11v13.01h-14.11Zm0,46.68v-42.93h14.11v42.93h-14.11Z"/>
            <path class="cls-2" d="m323.02,177.36l-10.6-42.93h14.88l4.32,26.13,4.44-26.13h14.84l-10.52,42.93h-17.37Z"/>
            <path class="cls-2" d="m388.5,173.21c-2.56,1.63-5.25,2.85-8.09,3.67-2.84.82-5.82,1.22-8.95,1.22-6.55,0-11.85-2.01-15.9-6.03s-6.07-9.24-6.07-15.66,2.13-11.67,6.38-16.02c4.25-4.35,9.48-6.52,15.68-6.52,4.57,0,8.56,1.29,11.99,3.87,3.43,2.58,5.91,6.18,7.46,10.8l-22.95,16.15c.73.3,1.49.52,2.28.67.79.15,1.67.22,2.65.22,2.31,0,4.69-.54,7.16-1.63,2.46-1.09,4.89-2.68,7.28-4.77l1.1,14.02Zm-26.01-16.92l13.05-9.42c-.57-.57-1.22-.99-1.96-1.24-.73-.26-1.59-.39-2.57-.39-2.34,0-4.38.9-6.14,2.69s-2.63,3.87-2.63,6.24c0,.33.02.67.06,1.02.04.35.1.72.18,1.1Z"/>
          </g>
          <g>
            <path class="cls-3" d="m129.4,175.31v-13.45c.84.38,1.6.66,2.26.84.67.18,1.3.27,1.9.27,1.09,0,1.96-.27,2.61-.8s.98-1.22.98-2.06c0-1.11-1.18-2.76-3.55-4.93-.57-.52-1.03-.94-1.39-1.26-1.28-1.22-2.24-2.55-2.87-3.98-.64-1.43-.96-2.96-.96-4.59,0-4.05,1.46-7.22,4.38-9.52,2.92-2.3,6.98-3.45,12.17-3.45.98,0,2,.05,3.08.16,1.07.11,2.22.27,3.45.49v12.64c-.82-.41-1.62-.71-2.41-.9-.79-.19-1.55-.29-2.28-.29-1.06,0-1.9.22-2.51.67-.61.45-.92,1.05-.92,1.81,0,.49.16,1,.49,1.53s.99,1.31,2,2.34c2.69,2.64,4.48,4.86,5.36,6.67.88,1.81,1.32,3.81,1.32,6.01,0,3.97-1.31,7.05-3.93,9.23-2.62,2.19-6.31,3.28-11.07,3.28-.92,0-1.96-.05-3.12-.14-1.16-.1-2.82-.29-4.99-.59Z"/>
            <path class="cls-3" d="m168.62,173.72v102.96h-14.11v-143.89h13.86v4.12c1.74-1.58,3.52-2.72,5.34-3.45,1.82-.72,3.83-1.08,6.03-1.08,5.44,0,10.06,2.12,13.88,6.36,3.82,4.24,5.73,9.42,5.73,15.53,0,6.41-1.99,11.72-5.97,15.9-3.98,4.19-8.98,6.28-14.98,6.28-1.9,0-3.66-.22-5.26-.67-1.6-.45-3.11-1.13-4.53-2.06Zm8.52-11.86c2.17,0,4.02-.74,5.52-2.22s2.26-3.27,2.26-5.36-.76-3.93-2.28-5.44c-1.52-1.51-3.36-2.26-5.5-2.26s-3.99.75-5.52,2.24c-1.54,1.5-2.3,3.32-2.3,5.46s.76,3.91,2.28,5.38c1.52,1.47,3.37,2.2,5.54,2.2Z"/>
            <path class="cls-3" d="m238.96,171.56c-2.56,1.63-5.25,2.85-8.09,3.67-2.84.82-5.82,1.22-8.95,1.22-6.55,0-11.85-2.01-15.9-6.03-4.05-4.02-6.07-9.24-6.07-15.66s2.13-11.67,6.38-16.02c4.25-4.35,9.48-6.52,15.68-6.52,4.57,0,8.56,1.29,11.99,3.87,3.42,2.58,5.91,6.18,7.46,10.8l-22.95,16.15c.73.3,1.49.52,2.28.67.79.15,1.67.22,2.65.22,2.31,0,4.69-.54,7.16-1.63,2.46-1.09,4.89-2.68,7.28-4.77l1.1,14.02Zm-26.01-16.92l13.05-9.42c-.57-.57-1.22-.99-1.96-1.24-.73-.26-1.59-.39-2.57-.39-2.34,0-4.38.9-6.14,2.69s-2.63,3.87-2.63,6.24c0,.33.02.67.06,1.02.04.35.1.72.18,1.1Z"/>
            <path class="cls-3" d="m271.49,175.39c-1.33.33-2.66.57-3.98.73-1.32.16-2.66.24-4.02.24-6.33,0-11.48-2.08-15.43-6.24-3.95-4.16-5.93-9.59-5.93-16.31s2.08-11.57,6.24-15.55c4.16-3.98,9.58-5.97,16.27-5.97,1.17,0,2.32.08,3.47.24,1.14.16,2.27.42,3.38.77v14.02c-1.36-.35-2.51-.61-3.47-.77-.95-.16-1.79-.24-2.53-.24-2.83,0-5.02.69-6.58,2.08-1.56,1.39-2.34,3.32-2.34,5.79s.82,4.32,2.47,5.79c1.64,1.47,3.83,2.2,6.54,2.2.76,0,1.61-.05,2.55-.16.94-.11,2.06-.27,3.36-.49v13.86Z"/>
            <path class="cls-3" d="m294.45,175.72c-1.06.16-2.06.29-3,.37-.94.08-1.85.12-2.75.12-4.68,0-7.89-.97-9.64-2.92-1.75-1.94-2.63-6-2.63-12.17v-15.53h-2.69v-12.8h2.69v-4.57l14.11-8.19v12.76h5.34v12.8h-5.34v9.66c0,2.34.28,3.89.84,4.65.56.76,1.61,1.14,3.16,1.14.6,0,1.08-.01,1.45-.04.37-.03.73-.08,1.08-.16l-2.61,14.88Z"/>
            <path class="cls-3" d="m299.22,129.04v-13.01h14.11v13.01h-14.11Zm0,46.68v-42.93h14.11v42.93h-14.11Z"/>
            <path class="cls-3" d="m324.87,175.72l-10.6-42.93h14.88l4.32,26.13,4.44-26.13h14.84l-10.52,42.93h-17.37Z"/>
            <path class="cls-3" d="m390.35,171.56c-2.56,1.63-5.25,2.85-8.09,3.67-2.84.82-5.82,1.22-8.95,1.22-6.55,0-11.85-2.01-15.9-6.03-4.05-4.02-6.07-9.24-6.07-15.66s2.13-11.67,6.38-16.02c4.25-4.35,9.48-6.52,15.68-6.52,4.57,0,8.56,1.29,11.99,3.87,3.43,2.58,5.91,6.18,7.46,10.8l-22.95,16.15c.73.3,1.49.52,2.28.67.79.15,1.67.22,2.65.22,2.31,0,4.69-.54,7.16-1.63,2.46-1.09,4.89-2.68,7.28-4.77l1.1,14.02Zm-26.01-16.92l13.05-9.42c-.57-.57-1.22-.99-1.96-1.24-.73-.26-1.59-.39-2.57-.39-2.34,0-4.38.9-6.14,2.69s-2.63,3.87-2.63,6.24c0,.33.02.67.06,1.02.04.35.1.72.18,1.1Z"/>
          </g>
          <g>
            <path class="cls-1" d="m131.27,173.75v-13.45c.84.38,1.6.66,2.26.84.67.18,1.3.27,1.9.27,1.09,0,1.96-.27,2.61-.8s.98-1.22.98-2.06c0-1.11-1.18-2.76-3.55-4.93-.57-.52-1.03-.94-1.39-1.26-1.28-1.22-2.24-2.55-2.87-3.98-.64-1.43-.96-2.96-.96-4.59,0-4.05,1.46-7.22,4.38-9.52,2.92-2.3,6.98-3.45,12.17-3.45.98,0,2,.05,3.08.16,1.07.11,2.22.27,3.45.49v12.64c-.82-.41-1.62-.71-2.41-.9-.79-.19-1.55-.29-2.28-.29-1.06,0-1.9.22-2.51.67-.61.45-.92,1.05-.92,1.81,0,.49.16,1,.49,1.53s.99,1.31,2,2.34c2.69,2.64,4.48,4.86,5.36,6.67.88,1.81,1.32,3.81,1.32,6.01,0,3.97-1.31,7.05-3.93,9.23-2.62,2.19-6.31,3.28-11.07,3.28-.92,0-1.96-.05-3.12-.14-1.16-.1-2.82-.29-4.99-.59Z"/>
            <path class="cls-1" d="m170.5,172.16v104.52h-14.11v-145.45h13.86v4.12c1.74-1.58,3.52-2.72,5.34-3.45,1.82-.72,3.83-1.08,6.03-1.08,5.44,0,10.06,2.12,13.88,6.36,3.82,4.24,5.73,9.42,5.73,15.53,0,6.41-1.99,11.72-5.97,15.9-3.98,4.19-8.98,6.28-14.98,6.28-1.9,0-3.66-.22-5.26-.67-1.6-.45-3.11-1.13-4.53-2.06Zm8.52-11.86c2.17,0,4.02-.74,5.52-2.22,1.51-1.48,2.26-3.27,2.26-5.36s-.76-3.93-2.28-5.44c-1.52-1.51-3.36-2.26-5.5-2.26s-3.99.75-5.52,2.24c-1.54,1.5-2.3,3.32-2.3,5.46s.76,3.91,2.28,5.38c1.52,1.47,3.37,2.2,5.54,2.2Z"/>
            <path class="cls-1" d="m240.83,170c-2.56,1.63-5.25,2.85-8.09,3.67-2.84.82-5.82,1.22-8.95,1.22-6.55,0-11.85-2.01-15.9-6.03-4.05-4.02-6.07-9.24-6.07-15.66s2.13-11.67,6.38-16.02c4.25-4.35,9.48-6.52,15.68-6.52,4.57,0,8.56,1.29,11.99,3.87,3.42,2.58,5.91,6.18,7.46,10.8l-22.95,16.15c.73.3,1.49.52,2.28.67.79.15,1.67.22,2.65.22,2.31,0,4.69-.54,7.16-1.63,2.46-1.09,4.89-2.68,7.28-4.77l1.1,14.03Zm-26.01-16.92l13.05-9.42c-.57-.57-1.22-.99-1.96-1.24-.73-.26-1.59-.39-2.57-.39-2.34,0-4.38.9-6.14,2.69-1.75,1.79-2.63,3.87-2.63,6.24,0,.33.02.67.06,1.02.04.35.1.72.18,1.1Z"/>
            <path class="cls-1" d="m273.37,173.83c-1.33.33-2.66.57-3.98.73-1.32.16-2.66.24-4.02.24-6.33,0-11.48-2.08-15.43-6.24-3.95-4.16-5.93-9.59-5.93-16.31s2.08-11.57,6.24-15.55c4.16-3.98,9.58-5.97,16.27-5.97,1.17,0,2.32.08,3.47.24,1.14.16,2.27.42,3.38.77v14.02c-1.36-.35-2.51-.61-3.47-.77-.95-.16-1.79-.24-2.53-.24-2.83,0-5.02.69-6.58,2.08-1.56,1.39-2.34,3.32-2.34,5.79s.82,4.32,2.47,5.79c1.64,1.47,3.83,2.2,6.54,2.2.76,0,1.61-.05,2.55-.16.94-.11,2.06-.27,3.36-.49v13.86Z"/>
            <path class="cls-1" d="m296.33,174.16c-1.06.16-2.06.29-3,.37-.94.08-1.85.12-2.75.12-4.68,0-7.89-.97-9.64-2.91-1.75-1.94-2.63-6-2.63-12.17v-15.53h-2.69v-12.8h2.69v-4.57l14.11-8.19v12.76h5.34v12.8h-5.34v9.66c0,2.34.28,3.89.84,4.65.56.76,1.61,1.14,3.16,1.14.6,0,1.08-.01,1.45-.04.37-.03.73-.08,1.08-.16l-2.61,14.88Z"/>
            <path class="cls-1" d="m301.1,127.48v-13.01h14.11v13.01h-14.11Zm0,46.68v-42.93h14.11v42.93h-14.11Z"/>
            <path class="cls-1" d="m326.75,174.16l-10.6-42.93h14.88l4.32,26.13,4.44-26.13h14.84l-10.52,42.93h-17.37Z"/>
            <path class="cls-1" d="m392.23,170c-2.56,1.63-5.25,2.85-8.09,3.67-2.84.82-5.82,1.22-8.95,1.22-6.55,0-11.85-2.01-15.9-6.03-4.05-4.02-6.07-9.24-6.07-15.66s2.13-11.67,6.38-16.02c4.25-4.35,9.48-6.52,15.68-6.52,4.57,0,8.56,1.29,11.99,3.87,3.43,2.58,5.91,6.18,7.46,10.8l-22.95,16.15c.73.3,1.49.52,2.28.67.79.15,1.67.22,2.65.22,2.31,0,4.69-.54,7.16-1.63,2.46-1.09,4.89-2.68,7.28-4.77l1.1,14.03Zm-26.01-16.92l13.05-9.42c-.57-.57-1.22-.99-1.96-1.24-.73-.26-1.59-.39-2.57-.39-2.34,0-4.38.9-6.14,2.69-1.75,1.79-2.63,3.87-2.63,6.24,0,.33.02.67.06,1.02.04.35.1.72.18,1.1Z"/>
          </g>
        </g>
      </g>
    </g>
  </g>
</svg>