<?xml version="1.0" encoding="UTF-8"?>
<svg id="Layer_2" data-name="Layer 2" xmlns="http://www.w3.org/2000/svg" viewBox="0 0 798.51 281.33">
  <defs>
    <style>
      .cls-1 {
        fill: #a30a24;
        font-family: RedickRegular, Redick;
        font-size: 44.86px;
      }

      .cls-2 {
        letter-spacing: .58em;
      }

      .cls-3 {
        letter-spacing: .66em;
      }

      .cls-4 {
        fill: #fff;
        stroke-width: 0px;
      }
    </style>
  </defs>
  <g id="Layer_1-2" data-name="Layer 1">
    <g>
      <g>
        <g>
          <path class="cls-4" d="M457.95,0h28.5c0,15.04,0,46.63,0,94.77-9.5-1.01-19-1.31-28.5-.71v-48.18c-15.88,1.03-31.75,4.63-47.62,11.74v47.97c-9.56,4.21-19.12,9.66-28.68,16.57V0h28.68v33.19c15.88-5.5,31.75-8.28,47.62-9.08V0Z"/>
          <path class="cls-4" d="M532.31,74.24c21.42,6.71,42.84,15.55,64.27,24.1v28.48c-30.98-11.54-61.97-23.65-92.95-29.48V0h90.65c0,9.98,0,19.9,0,29.76-20.66-4.12-41.31-8.33-61.97-11.56v13.98c13.46,3.1,26.91,6.81,40.37,10.7,0,8.91,0,18.01,0,27.29-13.46-5.03-26.91-9.84-40.37-13.85v17.91Z"/>
          <path class="cls-4" d="M678.72,113.86c12.45,16.29,24.9,29.9,37.36,40.13-10.74.42-21.48-.28-32.22-1.83-12.22-12.37-24.43-27.93-36.65-45.05-3.25-.98-6.49-2.02-9.74-3.09,0,13.29,0,25.66,0,37.11-9.56-3-19.12-6.34-28.68-9.82V0h61.97c11.8-.1,21.89,6.9,30.28,20.25,8.38,13.29,12.57,28.44,12.57,44.62,0,14.21-3.31,25.86-9.92,35.03-6.61,9.13-14.93,13.67-24.96,13.96ZM637.47,72.4c11.09,3.08,22.19,5.75,33.28,7.74,3.9.7,7.26-.49,10.09-3.65,2.83-3.17,4.25-7.43,4.25-12.76,0-5.34-1.42-10.15-4.25-14.31-2.83-4.16-6.2-6.45-10.09-6.87-11.09-1.2-22.19-2.82-33.28-4.68,0,12.03,0,23.54,0,34.53Z"/>
          <path class="cls-4" d="M774.68,59.36c7.14-2.85,14.28-6.28,21.42-10.34v29.09c-7.14,5.25-14.28,9.68-21.42,13.38v22.22c-9.56,5.2-19.12,9.01-28.68,11.64v-22.81c-7.14,1.86-14.28,3.1-21.42,3.8,0-10.94,0-22.77,0-35.5,7.14-.54,14.28-1.5,21.42-2.94v-28.94c9.56-1.21,19.12-2.97,28.68-5.38v25.77Z"/>
        </g>
        <g>
          <path class="cls-4" d="M394.03,143.25c0,1.43.73,2.27,2.19,2.59,1.46.33,3.36.31,5.71,0,2.34-.32,4.93-.63,7.76-.89,2.83-.26,5.68-.22,8.54.14,2.86.36,5.46,1.19,7.81,2.47,2.34,1.28,4.25,3.47,5.71,6.59,1.46,3.12,2.19,7.07,2.19,11.86,0,9.67-2.19,17.54-6.57,22.85-4.38,5.36-11.41,7.89-21.09,7.85-4.99,0-9.79-1.17-14.38-3.03-4.6-1.87-8.45-4.22-11.55-6.9,3.23-4.04,6.45-8.52,9.68-13.29,2.07,1.47,4.55,2.53,7.44,3.16,2.89.62,5.83.79,8.81.36,8.58-1.17,12.87-3.71,12.87-7.97,0-1.52-.56-2.65-1.69-3.38-1.13-.73-2.63-1.14-4.52-1.23-1.89-.09-4.02-.18-6.39-.23-2.37-.05-4.81,0-7.3.15-2.5.16-4.95.02-7.35-.34-2.41-.36-4.54-.91-6.39-1.67-1.86-.76-3.36-2.07-4.52-3.96-1.16-1.89-1.73-4.34-1.73-7.51,0-5.74,2.5-12.04,7.49-18.83,4.99-6.75,11.5-12.53,19.54-16.19,4.93-2.24,9.6-3.2,14.02-2.9,4.41.31,8.14,1.86,11.19,4.56-3.29,5.08-6.57,10.3-9.86,15.58-1.64-.95-3.74-1.6-6.3-1.87-2.56-.27-5.15.12-7.76,1.11-1.7.65-3.3,1.36-4.79,2.12-1.49.76-2.92,1.64-4.29,2.63-1.37.99-2.45,2.04-3.24,3.12-.79,1.08-1.19,2.09-1.19,3.04Z"/>
          <path class="cls-4" d="M487.71,112.72c4.32,5.89,6.48,12.87,6.48,21.12,0,8.26-2.16,15.41-6.48,21.48-4.32,6.08-9.53,9.25-15.61,9.17-5.72-.06-11.44,0-17.17.19,0,9.9,0,20.23,0,30.97-4.93,0-9.86.01-14.79.03,0-34.06,0-63.95,0-89.66,10.65-1.92,21.3-2.62,31.96-2.36,6.09.16,11.29,3.2,15.61,9.07ZM472.09,142.7c1.34.02,2.57-.42,3.7-1.34,1.13-.91,2.02-2.14,2.69-3.68.67-1.54,1.01-3.23,1-5.06,0-2.75-.73-5.1-2.19-7.08-1.46-1.97-3.2-2.98-5.2-3.03-5.72-.12-11.44,0-17.17.39,0,6.47,0,13.17,0,20.11,5.72-.3,11.44-.39,17.17-.3Z"/>
          <path class="cls-4" d="M514.55,173.73c11.05.8,22.1,1.81,33.14,2.95,0,6.27,0,12.67,0,19.18-15.98-.07-31.96-.14-47.94-.17,0-33.91,0-63.7,0-89.36,15.58,2.52,31.17,6.62,46.75,11.45,0,5.49,0,11.11,0,16.85-10.65-2.83-21.31-5.37-31.96-7.38,0,4.11,0,8.3,0,12.58,6.94,1.12,13.88,2.44,20.82,3.89v18.83c-6.94-1-13.88-1.91-20.82-2.68,0,4.54,0,9.17,0,13.88Z"/>
          <path class="cls-4" d="M595.81,175.71c3.5,3.9,7,7.56,10.5,10.93-2.98,2.88-6.61,5.25-10.87,7.11-4.26,1.85-8.8,2.94-13.6,2.94-5.78,0-11.14-1.56-16.07-5.18-4.93-3.6-8.83-8.72-11.69-15.19-2.86-6.46-4.29-13.48-4.29-20.6,0-7.12,1.43-13.23,4.29-18.12,2.86-4.9,6.76-8.04,11.69-9.55,4.93-1.5,10.29-1.11,16.07.94,4.81,1.7,9.34,4.38,13.6,7.88,4.26,3.5,7.88,7.43,10.87,11.72-3.5,2.18-7,4.46-10.5,6.89-1.64-2.63-3.68-4.97-6.12-7-2.43-2.03-5.05-3.5-7.85-4.35-2.31-.71-4.54-.89-6.67-.53-2.13.37-3.97,1.18-5.52,2.47-1.55,1.29-2.79,3.03-3.7,5.24-.91,2.21-1.37,4.71-1.37,7.46,0,3.65.78,7.22,2.33,10.58,1.55,3.36,3.65,6.1,6.3,8.18,2.65,2.08,5.52,3.24,8.63,3.58,2.8.31,5.42-.08,7.85-1.08,2.43-1,4.47-2.44,6.12-4.34Z"/>
          <path class="cls-4" d="M661.55,154.76c0,4.05,0,7.9,0,11.56-6.54-1.27-13.09-2.73-19.63-4.33,0,13.1,0,24.54,0,34.33-4.93-.02-9.86-.04-14.79-.07,0-11.47,0-24.17,0-38.1-6.54-1.79-13.09-3.67-19.63-5.61,0-4.56,0-9.18,0-13.86,18.02,6.22,36.04,12.01,54.05,16.08Z"/>
          <path class="cls-4" d="M681,196.44c-4.93-.01-9.86-.02-14.79-.04v-40.63c4.93,1.03,9.86,1.93,14.79,2.66,0,16.87,0,29.53,0,38.01Z"/>
          <path class="cls-4" d="M731.77,159.2c4.9-.68,9.8-1.61,14.7-2.82-7.79,19.19-15.58,32.5-23.37,40.08-4.9,0-9.8,0-14.7,0-7.79-7.32-15.58-19.63-23.37-37.48,4.93.64,9.86,1.12,14.79,1.4,5.33,11.63,10.65,20.74,15.98,27.69,5.33-7.11,10.65-16.67,15.98-28.88Z"/>
          <path class="cls-4" d="M765.37,187.23c11.05-1.44,22.1-3.4,33.14-5.96,0,4.93,0,9.86,0,14.79-15.98.17-31.96.28-47.94.34,0-10,0-23.69,0-41.09,15.58-4.33,31.17-11.5,46.75-22.34v14.67c-10.65,6.35-21.3,11.23-31.96,14.87,0,2.58,0,5.1,0,7.54,6.94-2.03,13.88-4.51,20.82-7.5,0,4.39,0,8.72,0,12.98-6.94,2.06-13.88,3.77-20.82,5.17,0,2.24,0,4.41,0,6.52Z"/>
        </g>
      </g>
      <rect class="cls-4" y="220.19" width="798.51" height="61.14"/>
      <text class="cls-1" transform="translate(378.23 266.83)"><tspan class="cls-3" x="0" y="0">art </tspan><tspan class="cls-2" x="220.36" y="0">f</tspan><tspan class="cls-3" x="272.13" y="0">air</tspan></text>
    </g>
  </g>
</svg>